P3
20 10
255
219 234 255
218 234 255
218 234 255
218 234 255
218 234 255
218 233 255
217 233 255
217 233 255
217 233 255
217 233 255
217 233 255
217 233 255
217 233 255
217 233 255
218 233 255
218 234 255
218 234 255
218 234 255
219 234 255
219 234 255
221 236 255
221 236 255
221 236 255
221 236 255
221 236 255
221 236 255
221 236 255
221 236 255
221 236 255
220 234 254
219 233 253
221 236 255
222 236 255
221 236 255
221 236 255
221 236 255
221 236 255
221 236 255
221 236 255
221 236 255
188 204 225
177 193 215
178 194 216
157 175 199
152 170 194
145 164 188
146 156 172
138 143 161
127 142 169
120 137 161
124 140 161
129 148 168
138 157 182
143 162 187
152 170 194
159 176 200
159 177 200
173 190 212
174 190 212
182 198 220
133 151 177
125 143 161
131 148 172
129 139 161
125 142 168
114 132 157
114 106 109
104 81 65
126 141 161
134 154 179
118 133 152
103 123 143
110 134 159
120 136 154
118 140 159
123 130 153
129 148 171
121 142 162
134 155 181
132 154 180
116 132 163
123 144 167
109 116 159
117 131 149
105 135 144
109 132 152
109 113 141
116 134 150
138 158 183
108 155 154
108 142 144
119 139 162
125 132 160
97 128 151
122 139 164
95 110 134
100 110 134
105 129 150
111 151 149
127 142 147
113 103 142
131 144 165
109 148 158
116 145 138
130 149 174
118 146 159
130 136 164
132 132 176
116 141 168
104 148 130
106 124 157
130 149 176
113 131 148
115 119 143
106 116 123
124 148 155
125 154 159
130 145 171
115 132 173
110 106 162
115 103 128
109 98 99
127 146 170
104 154 146
121 147 165
115 150 184
131 144 154
126 142 166
116 137 166
99 122 150
125 143 167
126 139 160
123 133 154
120 129 141
172 173 176
164 172 181
161 170 181
163 170 179
160 167 177
150 161 176
127 133 134
118 133 153
103 116 133
134 153 177
140 144 181
107 140 172
124 142 164
130 149 174
135 154 180
122 142 167
107 129 134
116 132 154
108 119 136
106 108 112
174 176 180
162 171 181
154 167 181
152 166 181
155 167 181
162 171 181
124 140 160
125 145 169
122 139 163
145 129 182
142 103 170
131 150 178
126 150 174
131 153 179
132 153 179
130 149 174
108 129 148
125 143 166
113 124 139
99 107 112
154 154 156
170 175 181
161 170 181
155 167 181
153 167 181
156 168 181
133 152 178
131 151 176
133 153 180
134 153 180
133 151 178
133 154 179
56 162 145
114 144 161
133 153 179
131 152 178
66 91 100
95 112 146
102 116 146
84 92 111
88 101 101
165 165 167
172 176 181
164 172 181
160 170 181
159 169 181
